# xmcd
# 
# Track frame offsets:
#     150
#     20180
#     41265
#     61835
#     80965
#     97022
#     116105
#     136042
#     154925
#     170390
# 
# Disc length: 2515
# 
# Revision: 4
# Processed by: cddbd v1.5.2PL0 Copyright (c) Steve Scherf et al.
# Submitted via: BonkEnc v1.0
# 
DISCID=8309d10a
DTITLE=Reba Mcentire - Starting Over
DYEAR=1995
DGENRE=Country
TTITLE0=Talking In Your Sleep
TTITLE1=Please Come To Boston
TTITLE2=On My Own
TTITLE3=I Won't Mention It Again
TTITLE4=You're No Good
TTITLE5=Ring On Her Finger, Time On Her Hands
TTITLE6=Five Hundred Miles Away From Home
TTITLE7=Starting Over Again
TTITLE8=You Keep Me Hangin' On
TTITLE9=By The Time I Get To Phoenix
EXTD=YEAR: 1995 ID3G: 2
EXTT0=
EXTT1=
EXTT2=
EXTT3=
EXTT4=
EXTT5=
EXTT6=
EXTT7=
EXTT8=
EXTT9=
PLAYORDER=
